<svg width="1085" height="195" viewBox="0 0 1085 195" fill="none" xmlns="http://www.w3.org/2000/svg">
<path d="M202.005 156C201.571 156 201.225 155.87 200.965 155.61C200.791 155.263 200.791 154.787 200.965 154.18L234.895 61.23C235.155 60.6233 235.458 60.19 235.805 59.93C236.151 59.67 236.628 59.54 237.235 59.54H245.035C246.508 59.54 247.418 60.1033 247.765 61.23L281.305 154.18C281.391 154.353 281.435 154.57 281.435 154.83C281.435 155.61 281.045 156 280.265 156H273.505C272.465 156 271.815 155.61 271.555 154.83L261.935 128.05C261.675 127.357 261.198 127.01 260.505 127.01H220.985C220.291 127.01 219.815 127.357 219.555 128.05L209.675 154.96C209.501 155.653 208.938 156 207.985 156H202.005ZM257.645 119.08C258.511 119.08 258.815 118.603 258.555 117.65L241.785 71.5C241.525 70.72 241.221 70.33 240.875 70.33C240.528 70.33 240.181 70.7633 239.835 71.63L222.805 117.78C222.631 118.127 222.545 118.387 222.545 118.56C222.545 118.907 222.891 119.08 223.585 119.08H257.645ZM307.021 154.05C307.021 154.83 306.891 155.35 306.631 155.61C306.371 155.87 305.851 156 305.071 156H300.131C299.525 156 299.091 155.913 298.831 155.74C298.571 155.48 298.441 155.047 298.441 154.44L298.571 61.1C298.571 60.4933 298.658 60.1033 298.831 59.93C299.005 59.67 299.351 59.54 299.871 59.54H305.721C306.588 59.54 307.021 60.06 307.021 61.1V154.05ZM337.236 154.05C337.236 154.83 337.106 155.35 336.846 155.61C336.586 155.87 336.066 156 335.286 156H330.346C329.739 156 329.306 155.913 329.046 155.74C328.786 155.48 328.656 155.047 328.656 154.44L328.786 61.1C328.786 60.4933 328.873 60.1033 329.046 59.93C329.219 59.67 329.566 59.54 330.086 59.54H335.936C336.803 59.54 337.236 60.06 337.236 61.1V154.05ZM402.525 93.73C401.831 93.73 401.485 94.0767 401.485 94.77V138.45C401.485 142.697 402.091 145.557 403.305 147.03C404.605 148.503 406.728 149.24 409.675 149.24H419.165C420.031 149.24 420.465 149.673 420.465 150.54V154.05C420.465 154.743 420.031 155.22 419.165 155.48C417.085 155.827 413.315 156 407.855 156C402.481 156 398.625 154.787 396.285 152.36C394.031 149.847 392.905 145.817 392.905 140.27V94.9C392.905 94.12 392.515 93.73 391.735 93.73H380.685C379.905 93.73 379.515 93.3833 379.515 92.69V88.14C379.515 87.4467 379.861 87.1 380.555 87.1H392.125C392.558 87.1 392.861 86.7533 393.035 86.06L394.335 65.26C394.335 64.22 394.725 63.7 395.505 63.7H400.185C401.138 63.7 401.615 64.2633 401.615 65.39V86.06C401.615 86.7533 401.918 87.1 402.525 87.1H419.685C420.378 87.1 420.725 87.4467 420.725 88.14V92.69C420.725 93.3833 420.335 93.73 419.555 93.73H402.525ZM437.365 156C436.325 156 435.805 155.48 435.805 154.44V60.97C435.805 60.0167 436.238 59.54 437.105 59.54H442.695C443.561 59.54 443.995 59.9733 443.995 60.84V95.94C443.995 96.98 444.385 97.11 445.165 96.33C450.365 92.5167 454.655 89.83 458.035 88.27C461.501 86.6233 465.358 85.8 469.605 85.8C476.365 85.8 481.521 87.5767 485.075 91.13C488.715 94.5967 490.535 99.32 490.535 105.3V154.31C490.535 155.437 490.015 156 488.975 156H483.515C482.475 156 481.955 155.48 481.955 154.44V107.51C481.955 97.8033 477.145 92.95 467.525 92.95C463.538 92.95 459.898 93.7733 456.605 95.42C453.398 97.0667 449.325 99.9267 444.385 104V154.44C444.385 155.48 443.821 156 442.695 156H437.365ZM516.022 125.45C516.022 129.87 517.105 134.03 519.272 137.93C521.438 141.743 524.342 144.777 527.982 147.03C531.708 149.283 535.738 150.41 540.072 150.41C549.432 150.41 556.538 146.64 561.392 139.1C561.652 138.667 561.912 138.45 562.172 138.45C562.432 138.363 562.735 138.407 563.082 138.58L567.502 141.05C567.762 141.223 567.892 141.44 567.892 141.7C567.978 141.96 567.892 142.263 567.632 142.61C564.425 147.637 560.525 151.363 555.932 153.79C551.338 156.13 545.878 157.3 539.552 157.3C533.225 157.3 527.592 155.827 522.652 152.88C517.798 149.933 513.985 145.817 511.212 140.53C508.438 135.157 507.052 129.047 507.052 122.2C507.052 114.833 508.438 108.42 511.212 102.96C514.072 97.4133 517.928 93.1667 522.782 90.22C527.722 87.2733 533.268 85.8 539.422 85.8C548.868 85.8 556.322 88.92 561.782 95.16C567.328 101.313 570.102 109.85 570.102 120.77V121.55C570.102 122.157 569.972 122.633 569.712 122.98C569.538 123.327 569.062 123.5 568.282 123.5H516.932C516.325 123.5 516.022 124.15 516.022 125.45ZM559.182 117.39C560.048 117.39 560.612 117.26 560.872 117C561.218 116.74 561.392 116.263 561.392 115.57C561.392 111.41 560.482 107.553 558.662 104C556.928 100.447 554.415 97.63 551.122 95.55C547.828 93.47 543.972 92.43 539.552 92.43C534.698 92.43 530.495 93.6433 526.942 96.07C523.388 98.41 520.658 101.487 518.752 105.3C516.932 109.113 516.065 113.143 516.152 117.39H559.182ZM616.368 156C615.328 156 614.808 155.48 614.808 154.44V60.97C614.808 60.0167 615.242 59.54 616.108 59.54H621.698C622.565 59.54 622.998 59.9733 622.998 60.84V95.94C622.998 96.98 623.388 97.11 624.168 96.33C629.368 92.5167 633.658 89.83 637.038 88.27C640.505 86.6233 644.362 85.8 648.608 85.8C655.368 85.8 660.525 87.5767 664.078 91.13C667.718 94.5967 669.538 99.32 669.538 105.3V154.31C669.538 155.437 669.018 156 667.978 156H662.518C661.478 156 660.958 155.48 660.958 154.44V107.51C660.958 97.8033 656.148 92.95 646.528 92.95C642.542 92.95 638.902 93.7733 635.608 95.42C632.402 97.0667 628.328 99.9267 623.388 104V154.44C623.388 155.48 622.825 156 621.698 156H616.368ZM712.316 150.15C716.216 150.15 719.986 149.11 723.626 147.03C727.352 144.95 731.166 141.917 735.066 137.93V88.66C735.066 87.62 735.629 87.1 736.756 87.1H742.216C743.169 87.1 743.646 87.62 743.646 88.66V154.57C743.646 155.523 743.212 156 742.346 156H736.756C735.889 156 735.456 155.567 735.456 154.7V146.77C735.456 146.337 735.369 146.077 735.196 145.99C735.022 145.903 734.719 146.033 734.286 146.38C729.519 150.453 725.272 153.313 721.546 154.96C717.819 156.52 714.092 157.3 710.366 157.3C704.299 157.3 699.272 155.523 695.286 151.97C691.299 148.33 689.306 143.607 689.306 137.8V88.79C689.306 87.6633 689.869 87.1 690.996 87.1H696.456C697.409 87.1 697.886 87.62 697.886 88.66V134.94C697.886 139.533 699.186 143.217 701.786 145.99C704.386 148.763 707.896 150.15 712.316 150.15ZM766.808 156C765.768 156 765.248 155.48 765.248 154.44V88.53C765.248 87.5767 765.681 87.1 766.548 87.1H772.138C773.005 87.1 773.438 87.5333 773.438 88.4V96.07C773.438 97.0233 773.828 97.1533 774.608 96.46C779.548 92.6467 783.665 89.9167 786.958 88.27C790.251 86.6233 793.935 85.8 798.008 85.8C802.861 85.8 806.848 86.9267 809.968 89.18C813.175 91.3467 815.341 93.99 816.468 97.11C816.641 97.37 816.815 97.5 816.988 97.5C817.248 97.5 817.681 97.2833 818.288 96.85C823.141 92.95 827.258 90.1333 830.638 88.4C834.105 86.6667 837.918 85.8 842.078 85.8C848.318 85.8 853.171 87.5767 856.638 91.13C860.105 94.5967 861.838 99.32 861.838 105.3V154.31C861.838 155.437 861.275 156 860.148 156H854.688C854.168 156 853.778 155.913 853.518 155.74C853.345 155.48 853.258 155.047 853.258 154.44V107.51C853.258 97.8033 848.795 92.95 839.868 92.95C836.141 92.95 832.631 93.86 829.338 95.68C826.131 97.4133 822.968 99.6233 819.848 102.31C819.068 103.003 818.505 103.653 818.158 104.26C817.898 104.78 817.768 105.43 817.768 106.21V154.31C817.768 155.437 817.248 156 816.208 156H810.748C809.708 156 809.188 155.48 809.188 154.44V107.51C809.188 97.8033 804.725 92.95 795.798 92.95C792.071 92.95 788.648 93.7733 785.528 95.42C782.495 97.0667 778.595 99.9267 773.828 104V154.44C773.828 155.48 773.265 156 772.138 156H766.808ZM922.983 147.29C919.516 150.67 915.833 153.183 911.933 154.83C908.119 156.477 903.916 157.3 899.323 157.3C892.476 157.3 887.103 155.61 883.203 152.23C879.303 148.85 877.353 144.257 877.353 138.45C877.353 131.69 880.169 126.36 885.803 122.46C891.523 118.56 899.843 116.22 910.763 115.44L922.333 114.53C923.806 114.357 924.543 113.707 924.543 112.58V108.81C924.543 103.783 922.939 99.7967 919.733 96.85C916.613 93.9033 912.366 92.43 906.993 92.43C899.019 92.43 892.389 96.1133 887.103 103.48C886.843 103.913 886.583 104.173 886.323 104.26C886.063 104.347 885.759 104.303 885.413 104.13L880.083 101.92C879.736 101.747 879.563 101.53 879.563 101.27C879.563 100.923 879.693 100.577 879.953 100.23C882.639 95.7233 886.323 92.2133 891.003 89.7C895.683 87.1 901.143 85.8 907.383 85.8C915.443 85.8 921.683 87.7933 926.103 91.78C930.609 95.68 932.863 101.14 932.863 108.16V154.31C932.863 155.437 932.343 156 931.303 156H926.493C925.453 156 924.933 155.437 924.933 154.31L924.673 147.55C924.499 146.943 924.283 146.64 924.023 146.64C923.763 146.64 923.416 146.857 922.983 147.29ZM924.543 122.33C924.543 120.857 923.893 120.207 922.593 120.38L912.843 121.16C894.989 122.46 886.063 127.92 886.063 137.54C886.063 141.527 887.493 144.69 890.353 147.03C893.213 149.37 897.026 150.54 901.793 150.54C904.653 150.54 907.469 150.02 910.243 148.98C913.016 147.94 915.529 146.553 917.783 144.82C922.289 141.093 924.543 137.41 924.543 133.77V122.33ZM954.825 156C953.785 156 953.265 155.48 953.265 154.44V88.53C953.265 87.5767 953.699 87.1 954.565 87.1H960.155C961.022 87.1 961.455 87.5333 961.455 88.4V96.07C961.455 97.11 961.845 97.24 962.625 96.46C967.825 92.6467 972.115 89.9167 975.495 88.27C978.962 86.6233 982.819 85.8 987.065 85.8C993.739 85.8 998.895 87.5767 1002.54 91.13C1006.18 94.5967 1008 99.2767 1008 105.17V154.31C1008 155.437 1007.48 156 1006.44 156H1000.98C999.935 156 999.415 155.48 999.415 154.44V107.51C999.415 97.8033 994.605 92.95 984.985 92.95C980.999 92.95 977.359 93.7733 974.065 95.42C970.859 97.0667 966.785 99.9267 961.845 104V154.44C961.845 155.48 961.282 156 960.155 156H954.825ZM1069.88 101.66C1067.98 98.8 1065.33 96.5467 1061.95 94.9C1058.66 93.2533 1054.85 92.43 1050.51 92.43C1045.4 92.43 1041.2 93.5133 1037.9 95.68C1034.61 97.8467 1032.96 100.75 1032.96 104.39C1032.96 106.557 1033.79 108.55 1035.43 110.37C1037.17 112.103 1040.16 113.62 1044.4 114.92L1061.3 120.12C1066.76 121.68 1070.84 123.977 1073.52 127.01C1076.21 129.957 1077.55 133.467 1077.55 137.54C1077.55 141.353 1076.34 144.777 1073.91 147.81C1071.57 150.757 1068.32 153.097 1064.16 154.83C1060 156.477 1055.32 157.3 1050.12 157.3C1043.62 157.3 1037.82 156 1032.7 153.4C1027.59 150.713 1023.95 147.203 1021.78 142.87C1021.61 142.523 1021.52 142.263 1021.52 142.09C1021.52 141.743 1021.7 141.44 1022.04 141.18L1026.2 138.71C1026.55 138.537 1026.81 138.45 1026.98 138.45C1027.24 138.45 1027.55 138.623 1027.89 138.97C1032.66 146.683 1039.98 150.54 1049.86 150.54C1055.41 150.54 1060 149.457 1063.64 147.29C1067.37 145.037 1069.23 142.09 1069.23 138.45C1069.23 135.85 1068.15 133.64 1065.98 131.82C1063.82 129.913 1060.26 128.267 1055.32 126.88L1042.06 122.98C1035.82 121.247 1031.36 118.993 1028.67 116.22C1026.07 113.36 1024.77 109.937 1024.77 105.95C1024.77 101.963 1025.86 98.4533 1028.02 95.42C1030.28 92.3867 1033.35 90.0467 1037.25 88.4C1041.15 86.6667 1045.62 85.8 1050.64 85.8C1056.19 85.8 1061.17 86.8833 1065.59 89.05C1070.1 91.13 1073.57 94.0767 1075.99 97.89C1076.51 98.4967 1076.47 98.9733 1075.86 99.32L1071.44 101.92C1071.18 102.093 1070.88 102.18 1070.53 102.18C1070.27 102.093 1070.06 101.92 1069.88 101.66Z" fill="#4A4A4A"/>
<g clip-path="url(#clip0)">
<path d="M170.27 0H0V170.207H170.27V0Z" fill="white"/>
<path d="M170.27 0H0V170.207H170.27V0Z" fill="#4A4A4A"/>
<path d="M154.354 118.576H118.618V154.299H154.354V118.576Z" fill="white"/>
</g>
<defs>
<clipPath id="clip0">
<rect width="170.27" height="170.207" fill="white"/>
</clipPath>
</defs>
</svg>
